<svg width="106" height="106" viewBox="0 0 106 106" fill="none" xmlns="http://www.w3.org/2000/svg">
<mask id="mask0_367_1269" style="mask-type:luminance" maskUnits="userSpaceOnUse" x="0" y="0" width="106" height="106">
<path d="M106 0H0V106H106V0Z" fill="white"/>
</mask>
<g mask="url(#mask0_367_1269)">
<g opacity="0.25">
<path d="M102.567 46.1099C100.445 44.3461 97.5136 43.2553 94.2785 43.2553H86.3137C83.0754 43.2553 80.1455 42.1656 78.0245 40.4007C75.9034 38.638 74.5901 36.2032 74.5901 33.5129C74.5901 28.1302 79.8392 23.7683 86.3137 23.7683H94.2785C100.752 23.7683 106 19.4064 106 14.0237C106 11.3334 104.688 8.89755 102.567 7.13583C100.445 5.37199 97.5136 4.28125 94.2785 4.28125H11.7215C5.24806 4.28337 0 8.64527 0 14.0248C0 16.715 1.31228 19.152 3.43334 20.9148C5.55546 22.6775 8.48636 23.7693 11.7215 23.7693H12.508C15.7463 23.7693 18.6761 24.8601 20.7983 26.6239C22.9204 28.3867 24.2316 30.8226 24.2316 33.5139C24.2316 38.8945 18.9835 43.2564 12.508 43.2564H11.7215C5.24806 43.2564 0 47.6194 0 53.001C0 55.6912 1.31228 58.1282 3.43334 59.891C5.55546 61.6548 8.48636 62.7455 11.7215 62.7455H17.5441L16.9081 57.6067C16.8074 56.7831 17.1222 56.0114 17.6787 55.4909L32.7731 31.6102C33.1897 30.9487 33.8288 30.4707 34.5602 30.2513C34.8581 30.159 35.1719 30.1124 35.492 30.1124H40.2556V15.2819C40.2556 13.8954 41.3792 12.7697 42.7689 12.7697H59.9928C60.2737 12.7697 60.5493 12.8164 60.8101 12.9065C61.2786 13.0665 61.6962 13.3654 62.0026 13.7736L68.3382 22.2122C68.5078 22.4348 68.635 22.6839 68.7209 22.9468C68.8014 23.1938 68.8417 23.4556 68.8417 23.7217V32.1667L87.5475 62.8272L87.5666 62.8568L87.645 62.9851V62.9883C87.6811 63.0519 87.7161 63.1176 87.7447 63.1844C88.8471 62.8993 90.0205 62.7455 91.2363 62.7455H94.2764C100.75 62.7455 105.998 58.3826 105.998 53.001C105.998 50.3107 104.686 47.8737 102.565 46.111L102.567 46.1099ZM32.3501 22.8005L34.5115 24.9618C34.7256 25.176 34.7256 25.5247 34.5115 25.7388L33.726 26.5264C33.5098 26.7405 33.161 26.7405 32.9459 26.5264L30.7845 24.364C30.5704 24.1488 30.2217 24.1488 30.0075 24.364L27.8462 26.5243C27.6321 26.7395 27.2833 26.7395 27.0692 26.5243L26.2827 25.7388C26.0686 25.5247 26.0686 25.176 26.2827 24.9618L28.444 22.8005C28.6582 22.5853 28.6582 22.2366 28.444 22.0225L26.2806 19.8611C26.0665 19.647 26.0665 19.2983 26.2806 19.082L27.0692 18.2966C27.2833 18.0814 27.6321 18.0814 27.8462 18.2966L30.0075 20.4579C30.2238 20.672 30.5704 20.672 30.7866 20.4579L32.948 18.2966C33.1621 18.0814 33.5108 18.0814 33.726 18.2966L34.5115 19.082C34.7256 19.2961 34.7256 19.6449 34.5115 19.8601L32.3501 22.0203C32.136 22.2366 32.136 22.5843 32.3501 22.8005ZM73.3605 14.7265L72.38 15.708C72.2825 15.8056 72.1235 15.8056 72.027 15.708L71.6708 15.3519C71.5733 15.2544 71.5733 15.0964 71.6708 14.9989L72.6513 14.0174C72.7489 13.9198 72.7489 13.7619 72.6513 13.6644L71.6698 12.6828C71.5723 12.5863 71.5723 12.4274 71.6698 12.3298L72.0281 11.9737C72.1245 11.8762 72.2835 11.8762 72.381 11.9737L73.3615 12.9542C73.4601 13.0517 73.6181 13.0517 73.7156 12.9542L74.6971 11.9737C74.7947 11.8762 74.9526 11.8762 75.0501 11.9737L75.4063 12.3298C75.5038 12.4263 75.5038 12.5853 75.4063 12.6828L74.4247 13.6633C74.3272 13.7619 74.3272 13.9198 74.4247 14.0174L75.4063 14.9989C75.5038 15.0964 75.5038 15.2544 75.4063 15.3519L75.0501 15.7102C74.9515 15.8066 74.7936 15.8066 74.6961 15.7102L73.7145 14.7276C73.6181 14.63 73.4591 14.63 73.3615 14.7276L73.3605 14.7265ZM102.568 85.085C100.446 83.3223 97.5147 82.2305 94.2796 82.2305H91.2395C89.0389 82.2305 86.9772 81.7259 85.2176 80.8472L83.4676 91.3189L82.9567 94.377C82.7563 95.5706 81.7228 96.4451 80.5144 96.4451H23.9041C22.6522 96.4451 21.5986 95.5144 21.447 94.2721L21.0813 91.3189L19.9577 82.2305H11.7236C5.25018 82.2305 0.00212207 86.5924 0.00212207 91.975C0.00212207 94.6653 1.3144 97.1012 3.43546 98.8629C5.55758 100.627 8.48848 101.718 11.7236 101.718H94.2806C100.754 101.718 106.002 97.3556 106.002 91.975C106.002 89.2848 104.69 86.8478 102.569 85.085H102.568ZM90.3777 86.6379L91.3593 87.6195C91.4568 87.717 91.4568 87.875 91.3593 87.9725L91.0031 88.3308C90.9045 88.4283 90.7466 88.4283 90.6491 88.3308L89.6686 87.3481C89.5711 87.2506 89.4121 87.2506 89.3156 87.3481L88.334 88.3297C88.2365 88.4272 88.0786 88.4272 87.9811 88.3297L87.6249 87.9735C87.5274 87.876 87.5274 87.7181 87.6249 87.6206L88.6065 86.639C88.7029 86.5415 88.7029 86.3836 88.6065 86.286L87.6238 85.3055C87.5263 85.208 87.5263 85.049 87.6238 84.9515L87.9821 84.5953C88.0796 84.4978 88.2376 84.4978 88.3351 84.5953L89.3167 85.5758C89.4142 85.6733 89.5721 85.6733 89.6696 85.5758L90.6512 84.5953C90.7487 84.4978 90.9067 84.4978 91.0042 84.5953L91.3603 84.9515C91.4579 85.049 91.4579 85.2069 91.3603 85.3045L90.3788 86.285C90.2823 86.3835 90.2823 86.5415 90.3788 86.639L90.3777 86.6379Z" fill="#12AA5B"/>
<path d="M96.4228 72.9618C96.4228 76.48 93.5713 79.3303 90.0543 79.3303C88.3954 79.3303 86.8849 78.6975 85.7507 77.6555L87.5113 67.1212C88.2904 66.781 89.1501 66.5923 90.0532 66.5923C93.5703 66.5923 96.4217 69.4437 96.4217 72.9608L96.4228 72.9618Z" fill="#12AA5B"/>
<path d="M14.5166 40.173C18.0338 40.173 20.885 37.3218 20.885 33.8045C20.885 30.2872 18.0338 27.436 14.5166 27.436C10.9993 27.436 8.14807 30.2872 8.14807 33.8045C8.14807 37.3218 10.9993 40.173 14.5166 40.173Z" fill="#12AA5B"/>
</g>
<g opacity="0.5">
<path d="M87.6473 62.9861V62.9819L87.5667 62.8536L87.5477 62.8261C87.1077 62.1668 86.3573 61.7247 85.4891 61.7247H38.0467C37.044 61.7247 36.1408 61.1195 35.7582 60.193L34.1745 56.3569C33.7919 55.4305 32.8887 54.8252 31.8849 54.8252H19.3684C18.7112 54.8252 18.1198 55.0785 17.6809 55.4888C17.1234 56.0082 16.8075 56.7798 16.9092 57.6045L21.0793 91.3178H83.4656L87.9314 64.6101C88.031 64.0239 87.9133 63.4589 87.6462 62.9861H87.6473ZM61.6815 72.2177C61.1749 72.7275 60.471 73.0424 59.694 73.0424H45.1635C43.6117 73.0424 42.3524 71.7831 42.3524 70.2302C42.3524 69.4543 42.6672 68.7515 43.176 68.2427C43.6859 67.7339 44.3866 67.4191 45.1635 67.4191H59.694C61.2469 67.4191 62.5062 68.6773 62.5062 70.2302C62.5062 71.0061 62.1914 71.711 61.6815 72.2177Z" fill="#12AA5B"/>
</g>
<g opacity="0.75">
<path d="M62.5049 70.231C62.5049 71.007 62.1901 71.7119 61.6802 72.2185C61.1736 72.7284 60.4697 73.0432 59.6927 73.0432H45.1623C43.6104 73.0432 42.3511 71.7839 42.3511 70.231C42.3511 69.4551 42.666 68.7523 43.1748 68.2435C43.6846 67.7347 44.3853 67.4199 45.1623 67.4199H59.6927C61.2456 67.4199 62.5049 68.6781 62.5049 70.231Z" fill="#12AA5B"/>
</g>
<path d="M59.693 73.3614H45.1625C43.4368 73.3614 42.0334 71.9569 42.0334 70.2312C42.0334 69.3959 42.3588 68.6104 42.9503 68.019C43.5428 67.4275 44.3283 67.1021 45.1625 67.1021H59.693C61.4187 67.1021 62.8232 68.5055 62.8232 70.2312C62.8232 71.0686 62.4967 71.8551 61.9052 72.4445C61.3169 73.0359 60.5314 73.3614 59.693 73.3614ZM45.1625 67.7381C44.4979 67.7381 43.8725 67.9978 43.3997 68.4684C42.9291 68.939 42.6694 69.5644 42.6694 70.2301C42.6694 71.6049 43.7877 72.7243 45.1625 72.7243H59.693C60.3597 72.7243 60.9862 72.4646 61.4547 71.9929C61.9275 71.5223 62.1872 70.8969 62.1872 70.2301C62.1872 68.8553 61.0678 67.737 59.693 67.737H45.1625V67.7381Z" fill="#12AA5B"/>
<g opacity="0.75">
<path d="M83.4666 91.3188L82.9556 94.378C82.7564 95.5716 81.7229 96.445 80.5134 96.445H23.903C22.6512 96.445 21.5975 95.5133 21.446 94.272L21.0803 91.3188H83.4666Z" fill="#12AA5B"/>
</g>
<path d="M80.5135 96.7631H23.9032C22.4934 96.7631 21.3019 95.7084 21.1302 94.3114L20.72 91.001H83.8419L83.2695 94.4301C83.0437 95.7816 81.8841 96.7631 80.5135 96.7631ZM21.4397 91.637L21.762 94.2329C21.8945 95.3131 22.8156 96.1271 23.9042 96.1271H80.5146C81.5735 96.1271 82.4692 95.3692 82.6431 94.3251L83.0925 91.637H21.4397Z" fill="#12AA5B"/>
<path d="M50.3753 88.2302H25.5554C25.3794 88.2302 25.2374 88.0882 25.2374 87.9122C25.2374 87.7363 25.3794 87.5942 25.5554 87.5942H50.3753C50.5512 87.5942 50.6933 87.7363 50.6933 87.9122C50.6933 88.0882 50.5512 88.2302 50.3753 88.2302Z" fill="#12AA5B"/>
<path d="M68.8416 88.2302H54.5485C54.3726 88.2302 54.2305 88.0882 54.2305 87.9122C54.2305 87.7363 54.3726 87.5942 54.5485 87.5942H68.8416C69.0175 87.5942 69.1596 87.7363 69.1596 87.9122C69.1596 88.0882 69.0175 88.2302 68.8416 88.2302Z" fill="#12AA5B"/>
<path d="M31.1034 62.0427H22.3436C22.1676 62.0427 22.0256 61.9007 22.0256 61.7247C22.0256 61.5488 22.1676 61.4067 22.3436 61.4067H31.1034C31.2794 61.4067 31.4214 61.5488 31.4214 61.7247C31.4214 61.9007 31.2794 62.0427 31.1034 62.0427Z" fill="#12AA5B"/>
<path d="M80.4519 84.822H65.2684C65.0925 84.822 64.9504 84.68 64.9504 84.504C64.9504 84.3281 65.0925 84.186 65.2684 84.186H80.4519C80.6278 84.186 80.7699 84.3281 80.7699 84.504C80.7699 84.68 80.6278 84.822 80.4519 84.822Z" fill="#12AA5B"/>
<g opacity="0.75">
<path d="M68.7207 47.3906V61.7249H38.0464C37.0437 61.7249 36.1405 61.1197 35.7589 60.1932L34.5622 57.2952V30.2482C34.8601 30.1571 35.1738 30.1094 35.495 30.1094H40.2576V46.6178C40.2576 48.0054 41.3812 49.13 42.7698 49.13H66.3304C67.4476 49.13 68.3953 48.3997 68.7207 47.3895V47.3906Z" fill="#12AA5B"/>
</g>
<path d="M69.0388 62.0425H38.0465C36.9113 62.0425 35.8968 61.3641 35.4643 60.3147L34.2432 57.3584V30.0135L34.4679 29.9446C34.7976 29.8429 35.1421 29.792 35.494 29.792H40.5746V46.6184C40.5746 47.8279 41.5593 48.8126 42.7688 48.8126H66.3294C67.2845 48.8126 68.124 48.2021 68.4176 47.2926L69.0377 45.3708V62.0436L69.0388 62.0425ZM34.8792 57.2311L36.0516 60.0709C36.3855 60.8818 37.1688 61.4054 38.0455 61.4054H68.4017V48.5466C67.8792 49.1094 67.1361 49.4476 66.3294 49.4476H42.7688C41.2085 49.4476 39.9386 48.1777 39.9386 46.6174V30.4269H35.494C35.2852 30.4269 35.0796 30.4492 34.8803 30.4927V57.2311H34.8792Z" fill="#12AA5B"/>
<g opacity="0.75">
<path d="M34.5615 30.248V57.295L34.1736 56.3569C33.792 55.4305 32.8878 54.8252 31.8839 54.8252H19.3664C18.7103 54.8252 18.1177 55.0785 17.6789 55.4888L32.7733 31.608C33.1909 30.9455 33.8301 30.4685 34.5604 30.248H34.5615Z" fill="#12AA5B"/>
</g>
<g opacity="0.75">
<path d="M87.5485 62.826C87.1086 62.1667 86.357 61.7247 85.4889 61.7247H68.7208V47.3903C68.7992 47.1476 68.8427 46.8889 68.8427 46.6186V32.1655L87.5485 62.8271V62.826Z" fill="#12AA5B"/>
</g>
<path d="M34.8791 58.8977L33.8796 56.4787C33.5457 55.6678 32.7623 55.1442 31.8846 55.1442H19.3671C18.818 55.1442 18.2954 55.3498 17.8969 55.7219L16.0875 57.4137L32.5047 31.4384C32.9574 30.7197 33.6559 30.1897 34.4689 29.9438L34.8791 29.8208V58.8977ZM19.3671 54.5071H31.8846C32.8556 54.5071 33.7375 55.0022 34.2431 55.8014V30.7101C33.7524 30.9433 33.3358 31.3122 33.0432 31.7765L18.6113 54.6089C18.8551 54.5411 19.1085 54.5061 19.3671 54.5061V54.5071Z" fill="#12AA5B"/>
<path d="M87.2837 63.0028C86.8819 62.4018 86.2109 62.0435 85.4891 62.0435H68.403V47.3402L68.4188 47.2925C68.4888 47.0752 68.5248 46.8484 68.5248 46.6184V31.0332L87.82 62.6615L87.2837 63.0039V63.0028ZM69.039 61.4075H85.4891C85.805 61.4075 86.1134 61.4605 86.4028 61.5612L69.1598 33.2974V46.6194C69.1598 46.8982 69.1185 47.1749 69.0379 47.4399V61.4075H69.039Z" fill="#12AA5B"/>
<g opacity="0.25">
<path d="M68.8417 23.7195V46.6176C68.8417 48.0052 67.716 49.1298 66.3295 49.1298H42.7688C41.3802 49.1298 40.2567 48.0041 40.2567 46.6176V15.2798C40.2567 13.8933 41.3802 12.7676 42.7688 12.7676H59.9938C60.2758 12.7676 60.5504 12.8153 60.8101 12.9043V21.82C60.8101 22.4422 61.3136 22.9457 61.9358 22.9457H68.7208C68.8014 23.1927 68.8427 23.4534 68.8427 23.7195H68.8417Z" fill="#12AA5B"/>
</g>
<path d="M66.3294 49.4479H42.7688C41.2085 49.4479 39.9386 48.1781 39.9386 46.6177V15.2799C39.9386 13.7196 41.2085 12.4497 42.7688 12.4497H59.9938C60.3076 12.4497 60.6171 12.5016 60.9139 12.6045L61.128 12.6787V21.8212C61.128 22.2664 61.4905 22.6289 61.9357 22.6289H68.9519L69.0229 22.8494C69.114 23.1303 69.1596 23.4239 69.1596 23.7207V46.6188C69.1596 48.1791 67.8897 49.449 66.3294 49.449V49.4479ZM42.7688 13.0857C41.5593 13.0857 40.5746 14.0704 40.5746 15.2799V46.6177C40.5746 47.8272 41.5593 48.8119 42.7688 48.8119H66.3294C67.5399 48.8119 68.5236 47.8272 68.5236 46.6177V23.7196C68.5236 23.5659 68.5077 23.4133 68.4759 23.2638H61.9347C61.1386 23.2638 60.4909 22.6162 60.4909 21.8201V13.1429C60.3277 13.1048 60.1613 13.0857 59.9927 13.0857H42.7677H42.7688Z" fill="#12AA5B"/>
<g opacity="0.5">
<path d="M68.7212 22.9457H61.9361C61.3139 22.9457 60.8104 22.4422 60.8104 21.82V12.9043C61.2789 13.0644 61.6966 13.3633 62.0029 13.7703L68.3385 22.21C68.5071 22.4326 68.6343 22.6817 68.7201 22.9446L68.7212 22.9457Z" fill="#12AA5B"/>
</g>
<path d="M69.1586 23.2635H61.9358C61.1397 23.2635 60.4921 22.6158 60.4921 21.8198V12.46L60.9129 12.6041C61.4503 12.7875 61.9146 13.1256 62.257 13.5804L68.5926 22.0201C68.7791 22.2671 68.9244 22.5459 69.0229 22.848L69.1586 23.2645V23.2635ZM61.1281 13.4012V21.8198C61.1281 22.265 61.4906 22.6275 61.9358 22.6275H68.2343C68.1898 22.549 68.14 22.4738 68.0859 22.4028L61.7492 13.963C61.5786 13.7351 61.3687 13.5465 61.1291 13.4023L61.1281 13.4012Z" fill="#12AA5B"/>
<path d="M68.5988 52.9489H67.543C67.3671 52.9489 67.225 52.8069 67.225 52.6309C67.225 52.455 67.3671 52.3129 67.543 52.3129H68.5988C69.044 52.3129 69.4849 52.2016 69.874 51.9907C70.0287 51.9069 70.2216 51.9642 70.3054 52.1189C70.3891 52.2737 70.3319 52.4666 70.1771 52.5504C69.6959 52.8122 69.1489 52.95 68.5988 52.95V52.9489ZM64.999 52.9489H62.455C62.2791 52.9489 62.137 52.8069 62.137 52.6309C62.137 52.455 62.2791 52.3129 62.455 52.3129H64.999C65.175 52.3129 65.317 52.455 65.317 52.6309C65.317 52.8069 65.175 52.9489 64.999 52.9489ZM59.911 52.9489H57.367C57.1911 52.9489 57.049 52.8069 57.049 52.6309C57.049 52.455 57.1911 52.3129 57.367 52.3129H59.911C60.087 52.3129 60.229 52.455 60.229 52.6309C60.229 52.8069 60.087 52.9489 59.911 52.9489ZM54.823 52.9489H52.279C52.1031 52.9489 51.961 52.8069 51.961 52.6309C51.961 52.455 52.1031 52.3129 52.279 52.3129H54.823C54.999 52.3129 55.141 52.455 55.141 52.6309C55.141 52.8069 54.999 52.9489 54.823 52.9489ZM49.735 52.9489H47.191C47.0151 52.9489 46.873 52.8069 46.873 52.6309C46.873 52.455 47.0151 52.3129 47.191 52.3129H49.735C49.911 52.3129 50.053 52.455 50.053 52.6309C50.053 52.8069 49.911 52.9489 49.735 52.9489ZM44.647 52.9489H42.103C41.9271 52.9489 41.785 52.8069 41.785 52.6309C41.785 52.455 41.9271 52.3129 42.103 52.3129H44.647C44.823 52.3129 44.965 52.455 44.965 52.6309C44.965 52.8069 44.823 52.9489 44.647 52.9489ZM39.5749 52.8026C39.5421 52.8026 39.5092 52.7973 39.4763 52.7867C38.5711 52.4931 37.8355 51.8232 37.4581 50.9487C37.3881 50.7876 37.4623 50.6 37.6235 50.5311C37.7846 50.4611 37.9722 50.5353 38.0411 50.6964C38.3464 51.4034 38.941 51.9451 39.6714 52.1815C39.8389 52.2355 39.93 52.4147 39.876 52.5822C39.8325 52.7168 39.7074 52.8016 39.5739 52.8016L39.5749 52.8026ZM71.5212 50.6233C71.4979 50.6233 71.4735 50.6212 71.4502 50.6148C71.2785 50.5756 71.1714 50.4049 71.2106 50.2343C71.2551 50.0392 71.2774 49.8378 71.2774 49.6354V47.7676C71.2774 47.5917 71.4195 47.4496 71.5954 47.4496C71.7714 47.4496 71.9134 47.5917 71.9134 47.7676V49.6354C71.9134 49.8855 71.8858 50.1346 71.8297 50.3763C71.7957 50.5236 71.6654 50.6233 71.5201 50.6233H71.5212ZM37.5058 48.6305C37.3298 48.6305 37.1878 48.4884 37.1878 48.3125V45.7685C37.1878 45.5925 37.3298 45.4505 37.5058 45.4505C37.6818 45.4505 37.8238 45.5925 37.8238 45.7685V48.3125C37.8238 48.4884 37.6818 48.6305 37.5058 48.6305ZM71.5954 45.5406C71.4195 45.5406 71.2774 45.3985 71.2774 45.2226V42.6786C71.2774 42.5026 71.4195 42.3606 71.5954 42.3606C71.7714 42.3606 71.9134 42.5026 71.9134 42.6786V45.2226C71.9134 45.3985 71.7714 45.5406 71.5954 45.5406ZM37.5058 43.5425C37.3298 43.5425 37.1878 43.4004 37.1878 43.2245V40.6805C37.1878 40.5045 37.3298 40.3625 37.5058 40.3625C37.6818 40.3625 37.8238 40.5045 37.8238 40.6805V43.2245C37.8238 43.4004 37.6818 43.5425 37.5058 43.5425ZM71.5954 40.4526C71.4195 40.4526 71.2774 40.3105 71.2774 40.1346V37.5906C71.2774 37.4146 71.4195 37.2726 71.5954 37.2726C71.7714 37.2726 71.9134 37.4146 71.9134 37.5906V40.1346C71.9134 40.3105 71.7714 40.4526 71.5954 40.4526ZM37.5058 38.4545C37.3298 38.4545 37.1878 38.3124 37.1878 38.1365V35.5925C37.1878 35.4165 37.3298 35.2745 37.5058 35.2745C37.6818 35.2745 37.8238 35.4165 37.8238 35.5925V38.1365C37.8238 38.3124 37.6818 38.4545 37.5058 38.4545ZM71.5954 35.3646C71.4195 35.3646 71.2774 35.2225 71.2774 35.0466V32.5026C71.2774 32.3266 71.4195 32.1846 71.5954 32.1846C71.7714 32.1846 71.9134 32.3266 71.9134 32.5026V35.0466C71.9134 35.2225 71.7714 35.3646 71.5954 35.3646ZM37.5058 33.3665C37.3298 33.3665 37.1878 33.2244 37.1878 33.0485V30.5045C37.1878 30.3285 37.3298 30.1865 37.5058 30.1865C37.6818 30.1865 37.8238 30.3285 37.8238 30.5045V33.0485C37.8238 33.2244 37.6818 33.3665 37.5058 33.3665ZM71.5954 30.2766C71.4195 30.2766 71.2774 30.1345 71.2774 29.9586V27.4146C71.2774 27.2386 71.4195 27.0966 71.5954 27.0966C71.7714 27.0966 71.9134 27.2386 71.9134 27.4146V29.9586C71.9134 30.1345 71.7714 30.2766 71.5954 30.2766ZM37.5058 28.2785C37.3298 28.2785 37.1878 28.1364 37.1878 27.9605V25.4165C37.1878 25.2405 37.3298 25.0985 37.5058 25.0985C37.6818 25.0985 37.8238 25.2405 37.8238 25.4165V27.9605C37.8238 28.1364 37.6818 28.2785 37.5058 28.2785ZM71.5954 25.1886C71.4195 25.1886 71.2774 25.0465 71.2774 24.8706V22.3266C71.2774 22.0467 71.2339 21.769 71.147 21.5008C71.0516 21.2125 70.9149 20.9496 70.741 20.7196L70.5344 20.4451C70.4294 20.3041 70.457 20.1048 70.5979 19.9999C70.7389 19.8949 70.9382 19.9225 71.0431 20.0635L71.2477 20.3359C71.464 20.62 71.6336 20.9454 71.7512 21.3037C71.8583 21.6376 71.9123 21.981 71.9123 22.3266V24.8706C71.9123 25.0465 71.7703 25.1886 71.5943 25.1886H71.5954ZM37.5058 23.1905C37.3298 23.1905 37.1878 23.0484 37.1878 22.8725V20.3285C37.1878 20.1525 37.3298 20.0105 37.5058 20.0105C37.6818 20.0105 37.8238 20.1525 37.8238 20.3285V22.8725C37.8238 23.0484 37.6818 23.1905 37.5058 23.1905ZM69.2623 18.5381C69.1659 18.5381 69.0705 18.4947 69.0079 18.4109L67.4805 16.3768C67.3755 16.2369 67.4031 16.0365 67.5441 15.9316C67.6851 15.8267 67.8843 15.8542 67.9893 15.9952L69.5167 18.0293C69.6217 18.1693 69.5941 18.3696 69.4531 18.4745C69.3959 18.518 69.3291 18.5381 69.2623 18.5381ZM37.5058 18.1025C37.3298 18.1025 37.1878 17.9604 37.1878 17.7845V15.2405C37.1878 15.0645 37.3298 14.9225 37.5058 14.9225C37.6818 14.9225 37.8238 15.0645 37.8238 15.2405V17.7845C37.8238 17.9604 37.6818 18.1025 37.5058 18.1025ZM66.2085 14.4688C66.112 14.4688 66.0166 14.4253 65.9541 14.3416L64.4266 12.3075C64.3217 12.1665 64.3492 11.9672 64.4902 11.8623C64.6312 11.7573 64.8305 11.7849 64.9354 11.9259L66.4629 13.96C66.5678 14.101 66.5403 14.3003 66.3993 14.4052C66.342 14.4487 66.2753 14.4688 66.2085 14.4688ZM37.5058 13.0145C37.3298 13.0145 37.1878 12.8724 37.1878 12.6965V12.2619C37.1878 11.4764 37.4676 10.7153 37.9754 10.1175C38.0888 9.98394 38.2902 9.96699 38.4238 10.0815C38.5573 10.1949 38.5743 10.3963 38.4598 10.5298C38.0496 11.0121 37.8238 11.628 37.8238 12.2619V12.6965C37.8238 12.8724 37.6818 13.0145 37.5058 13.0145ZM63.1239 10.4238C63.0444 10.4238 62.9649 10.3942 62.9034 10.3348C62.6225 10.0645 62.2812 9.85569 61.9144 9.73061C61.6346 9.63309 61.342 9.58327 61.0431 9.58327H60.7993C60.6233 9.58327 60.4813 9.44123 60.4813 9.26527C60.4813 9.08931 60.6233 8.94727 60.7993 8.94727H61.0431C61.413 8.94727 61.7766 9.00874 62.1222 9.12852C62.5748 9.28222 62.9977 9.54087 63.3454 9.87583C63.4716 9.99773 63.4758 10.1991 63.3539 10.3253C63.2914 10.3899 63.2087 10.4228 63.1249 10.4228L63.1239 10.4238ZM40.4473 9.58433C40.2745 9.58433 40.1325 9.44547 40.1293 9.27163C40.1261 9.09567 40.266 8.95151 40.442 8.94833H40.5014H42.9913C43.1673 8.94833 43.3093 9.09037 43.3093 9.26633C43.3093 9.44229 43.1673 9.58433 42.9913 9.58433H40.4526C40.4526 9.58433 40.4484 9.58433 40.4473 9.58433ZM58.2553 9.58433H55.7113C55.5353 9.58433 55.3933 9.44229 55.3933 9.26633C55.3933 9.09037 55.5353 8.94833 55.7113 8.94833H58.2553C58.4313 8.94833 58.5733 9.09037 58.5733 9.26633C58.5733 9.44229 58.4313 9.58433 58.2553 9.58433ZM53.1673 9.58433H50.6233C50.4473 9.58433 50.3053 9.44229 50.3053 9.26633C50.3053 9.09037 50.4473 8.94833 50.6233 8.94833H53.1673C53.3433 8.94833 53.4853 9.09037 53.4853 9.26633C53.4853 9.44229 53.3433 9.58433 53.1673 9.58433ZM48.0793 9.58433H45.5353C45.3593 9.58433 45.2173 9.44229 45.2173 9.26633C45.2173 9.09037 45.3593 8.94833 45.5353 8.94833H48.0793C48.2553 8.94833 48.3973 9.09037 48.3973 9.26633C48.3973 9.44229 48.2553 9.58433 48.0793 9.58433Z" fill="#12AA5B"/>
<g opacity="0.5">
<path d="M53.3962 35.105C52.3002 35.105 51.4681 34.0905 51.714 33.0231C51.767 32.7942 51.8306 32.5843 51.9048 32.3945C52.1635 31.732 52.5822 31.1586 53.163 30.672C53.7429 30.1865 54.1838 29.7413 54.4859 29.3375C54.788 28.9336 54.9385 28.4895 54.9385 28.003C54.9385 26.82 54.4287 26.2274 53.41 26.2274C52.9394 26.2274 52.5599 26.4002 52.2695 26.7447C52.173 26.8592 52.0914 26.9885 52.0257 27.1306C51.7426 27.7369 51.1565 28.1439 50.4876 28.1439H49.9449C48.6421 28.1439 47.809 26.75 48.4312 25.6042C48.6612 25.1812 48.957 24.807 49.3195 24.4816C50.2915 23.6082 51.6547 23.1704 53.4111 23.1704C55.1675 23.1704 56.5126 23.5743 57.473 24.3809C58.4333 25.1887 58.9135 26.3366 58.9135 27.8259C58.9135 28.4768 58.7842 29.0683 58.5256 29.6014C58.2669 30.1346 57.8514 30.6795 57.279 31.236L55.9265 32.4942C55.5427 32.863 55.2756 33.2404 55.1272 33.6284C55.0975 33.7068 55.07 33.7895 55.0445 33.8775C54.8378 34.6089 54.1573 35.1039 53.3973 35.1039L53.3962 35.105ZM51.0345 38.6793C51.0345 38.0995 51.2444 37.6235 51.6631 37.2504C52.0818 36.8783 52.6055 36.6918 53.233 36.6918C53.8605 36.6918 54.3831 36.8783 54.8029 37.2504C55.2216 37.6225 55.4314 38.0995 55.4314 38.6793C55.4314 39.2591 55.2216 39.7361 54.8029 40.1082C54.3831 40.4802 53.8605 40.6668 53.233 40.6668C52.6055 40.6668 52.0829 40.4802 51.6631 40.1082C51.2434 39.7361 51.0345 39.2602 51.0345 38.6793Z" fill="#12AA5B"/>
</g>
<path d="M83.7358 91.6369H20.7983L16.5933 57.6438C16.4841 56.7587 16.8095 55.8662 17.4636 55.2567C17.9787 54.7744 18.655 54.5083 19.3673 54.5083H31.8838C33.0201 54.5083 34.0345 55.1867 34.4681 56.2361L36.0517 60.0722C36.3867 60.8831 37.169 61.4068 38.0466 61.4068H85.4891C86.425 61.4068 87.2932 61.8711 87.8126 62.6502L87.838 62.6883L87.9398 62.859C88.2451 63.4144 88.3511 64.0377 88.2451 64.6642L83.7358 91.6369ZM21.3612 91.0009H83.1973L87.6186 64.5582C87.7013 64.0674 87.6154 63.5777 87.3706 63.1431L87.2858 63.0063C86.8829 62.4021 86.212 62.0428 85.4901 62.0428H38.0477C36.9124 62.0428 35.8991 61.3644 35.4655 60.315L33.8819 56.4788C33.5469 55.6679 32.7636 55.1443 31.8859 55.1443H19.3694C18.8193 55.1443 18.2967 55.3489 17.8992 55.722C17.3862 56.2001 17.1403 56.8721 17.2261 57.5664L21.3622 91.0009H21.3612Z" fill="#12AA5B"/>
<g opacity="0.5">
<path d="M34.5103 24.9605C34.7244 25.1746 34.7244 25.5233 34.5103 25.7374L33.7249 26.525C33.5086 26.7391 33.1599 26.7391 32.9458 26.525L30.7844 24.3626C30.5703 24.1485 30.2216 24.1485 30.0074 24.3626L27.8461 26.524C27.632 26.7381 27.2832 26.7381 27.0691 26.524L26.2837 25.7385C26.0695 25.5244 26.0695 25.1756 26.2837 24.9615L28.445 22.8002C28.6591 22.5861 28.6591 22.2373 28.445 22.0232L26.2826 19.8619C26.0685 19.6477 26.0685 19.299 26.2826 19.0828L27.0702 18.2973C27.2843 18.0832 27.633 18.0832 27.8472 18.2973L30.0085 20.4587C30.2247 20.6728 30.5714 20.6728 30.7876 20.4587L32.9489 18.2973C33.1631 18.0832 33.5118 18.0832 33.7259 18.2973L34.5114 19.0828C34.7255 19.2969 34.7255 19.6456 34.5114 19.8597L32.35 22.0211C32.1359 22.2373 32.1359 22.584 32.35 22.8002L34.5114 24.9615L34.5103 24.9605Z" fill="#12AA5B"/>
</g>
<g opacity="0.5">
<path d="M82.3799 36.5276C82.524 36.6717 82.524 36.906 82.3799 37.0501L81.8509 37.5801C81.7057 37.7243 81.4704 37.7243 81.3262 37.5801L79.8719 36.1247C79.7277 35.9806 79.4935 35.9806 79.3493 36.1247L77.895 37.5791C77.7508 37.7232 77.5166 37.7232 77.3724 37.5791L76.8435 37.0501C76.6993 36.906 76.6993 36.6717 76.8435 36.5276L78.2978 35.0732C78.442 34.9291 78.442 34.6948 78.2978 34.5507L76.8424 33.0963C76.6983 32.9522 76.6983 32.7179 76.8424 32.5716L77.3724 32.0427C77.5166 31.8985 77.7508 31.8985 77.895 32.0427L79.3493 33.497C79.4945 33.6412 79.7278 33.6412 79.874 33.497L81.3283 32.0427C81.4725 31.8985 81.7068 31.8985 81.8509 32.0427L82.3799 32.5716C82.524 32.7158 82.524 32.95 82.3799 33.0942L80.9255 34.5485C80.7814 34.6937 80.7814 34.927 80.9255 35.0732L82.3799 36.5276Z" fill="#12AA5B"/>
</g>
<g opacity="0.5">
<path d="M75.4053 14.9976C75.5028 15.0951 75.5028 15.253 75.4053 15.3505L75.048 15.7078C74.9495 15.8053 74.7915 15.8053 74.694 15.7078L73.7125 14.7251C73.6149 14.6276 73.457 14.6276 73.3595 14.7251L72.3779 15.7067C72.2804 15.8042 72.1224 15.8042 72.0249 15.7067L71.6677 15.3495C71.5702 15.252 71.5702 15.094 71.6677 14.9965L72.6493 14.0149C72.7468 13.9174 72.7468 13.7595 72.6493 13.662L71.6666 12.6804C71.5691 12.5829 71.5691 12.4249 71.6666 12.3264L72.0239 11.9691C72.1214 11.8716 72.2793 11.8716 72.3769 11.9691L73.3584 12.9507C73.457 13.0482 73.6139 13.0482 73.7125 12.9507L74.694 11.9691C74.7915 11.8716 74.9495 11.8716 75.047 11.9691L75.4042 12.3264C75.5017 12.4239 75.5017 12.5818 75.4042 12.6793L74.4226 13.6609C74.3251 13.7595 74.3251 13.9164 74.4226 14.0149L75.4042 14.9965L75.4053 14.9976Z" fill="#12AA5B"/>
</g>
<g opacity="0.5">
<path d="M91.3583 87.6182C91.4558 87.7157 91.4558 87.8736 91.3583 87.9711L91.0011 88.3284C90.9025 88.4259 90.7445 88.4259 90.647 88.3284L89.6655 87.3457C89.5679 87.2482 89.41 87.2482 89.3125 87.3457L88.3309 88.3273C88.2334 88.4248 88.0754 88.4248 87.9779 88.3273L87.6207 87.9701C87.5232 87.8726 87.5232 87.7146 87.6207 87.6171L88.6023 86.6355C88.6998 86.538 88.6998 86.3801 88.6023 86.2826L87.6196 85.301C87.5221 85.2035 87.5221 85.0455 87.6196 84.947L87.9769 84.5897C88.0744 84.4922 88.2323 84.4922 88.3299 84.5897L89.3114 85.5713C89.41 85.6688 89.5669 85.6688 89.6655 85.5713L90.647 84.5897C90.7445 84.4922 90.9025 84.4922 91 84.5897L91.3572 84.947C91.4547 85.0445 91.4547 85.2024 91.3572 85.2999L90.3756 86.2815C90.2781 86.3801 90.2781 86.537 90.3756 86.6355L91.3572 87.6171L91.3583 87.6182Z" fill="#12AA5B"/>
</g>
<g opacity="0.5">
<path d="M13.2934 75.2373C13.391 75.3348 13.391 75.4928 13.2934 75.5903L12.9362 75.9475C12.8376 76.045 12.6797 76.045 12.5822 75.9475L11.6006 74.9649C11.5031 74.8674 11.3452 74.8674 11.2476 74.9649L10.2661 75.9464C10.1686 76.044 10.0106 76.044 9.91311 75.9464L9.55589 75.5892C9.45837 75.4917 9.45837 75.3338 9.55589 75.2362L10.5374 74.2547C10.635 74.1572 10.635 73.9992 10.5374 73.9017L9.55483 72.9201C9.45731 72.8226 9.45731 72.6647 9.55483 72.5661L9.91205 72.2089C10.0096 72.1114 10.1675 72.1114 10.265 72.2089L11.2466 73.1904C11.3452 73.288 11.502 73.288 11.6006 73.1904L12.5822 72.2089C12.6797 72.1114 12.8377 72.1114 12.9352 72.2089L13.2924 72.5661C13.3899 72.6636 13.3899 72.8216 13.2924 72.9191L12.3108 73.9006C12.2133 73.9992 12.2133 74.1561 12.3108 74.2547L13.2924 75.2362L13.2934 75.2373Z" fill="#12AA5B"/>
</g>
</g>
</svg>
