<svg width="40" height="30" viewBox="0 0 40 30" fill="none" xmlns="http://www.w3.org/2000/svg">
<g clip-path="url(#clip0_118_1290)">
<path d="M2.72727 30H9.09091V14.5455L0 7.72729V27.2728C0 28.7818 1.22273 30 2.72727 30Z" fill="#4285F4"/>
<path d="M30.9092 30H37.2728C38.7819 30 40.0001 28.7773 40.0001 27.2728V7.72729L30.9092 14.5455" fill="#34A853"/>
<path d="M30.9092 2.72726V14.5454L40.0001 7.72726V4.0909C40.0001 0.718167 36.1501 -1.20456 33.4546 0.818167" fill="#FBBC04"/>
<path d="M9.09082 14.5455V2.72729L19.9999 10.9091L30.909 2.72729V14.5455L19.9999 22.7273" fill="#EA4335"/>
<path d="M0 4.0909V7.72726L9.09091 14.5454V2.72726L6.54545 0.818167C3.84546 -1.20456 0 0.718167 0 4.0909Z" fill="#C5221F"/>
</g>
<defs>
<clipPath id="clip0_118_1290">
<rect width="40" height="30" fill="white"/>
</clipPath>
</defs>
</svg>
