<svg width="33" height="30" viewBox="0 0 33 30" fill="none" xmlns="http://www.w3.org/2000/svg">
<g clip-path="url(#clip0_118_1299)">
<path d="M32.2498 15.75C32.2516 15.4978 32.1213 15.2631 31.9063 15.1313H31.9026L31.8891 15.1238L20.7141 8.50876C20.6658 8.47616 20.6158 8.44636 20.5641 8.41952C20.1326 8.19691 19.6201 8.19691 19.1886 8.41952C19.1369 8.44638 19.0868 8.47616 19.0386 8.50876L7.86362 15.1238L7.85012 15.1313C7.50858 15.3436 7.40388 15.7927 7.61626 16.1343C7.67884 16.2349 7.76504 16.3187 7.86737 16.3785L19.0424 22.9935C19.0908 23.0258 19.1409 23.0556 19.1924 23.0828C19.6238 23.3054 20.1364 23.3054 20.5679 23.0828C20.6194 23.0556 20.6694 23.0258 20.7179 22.9935L31.8929 16.3785C32.1161 16.2483 32.2524 16.0084 32.2498 15.75Z" fill="#0A2767"/>
<path d="M9.16638 11.3332H16.4999V18.0555H9.16638V11.3332ZM30.7499 4.5V1.42499C30.7675 0.656172 30.1589 0.0184227 29.3901 0H10.3596C9.59082 0.0184227 8.98227 0.656172 8.99988 1.42499V4.5L20.2499 7.49999L30.7499 4.5Z" fill="#0364B8"/>
<path d="M9 4.5H16.5V11.25H9V4.5Z" fill="#0078D4"/>
<path d="M24 4.5H16.5V11.25L24 18H30.75V11.25L24 4.5Z" fill="#28A8EA"/>
<path d="M16.5 11.25H24V18H16.5V11.25Z" fill="#0078D4"/>
<path d="M16.5 18H24V24.75H16.5V18Z" fill="#0364B8"/>
<path d="M9.1665 18.0555H16.5V24.1665H9.1665V18.0555Z" fill="#14447D"/>
<path d="M24 18H30.75V24.75H24V18Z" fill="#0078D4"/>
<path d="M31.9065 16.3373L31.8922 16.3448L20.7172 22.6297C20.6685 22.6597 20.619 22.6882 20.5672 22.7137C20.3774 22.8041 20.1713 22.8551 19.9612 22.8637L19.3507 22.5067C19.2991 22.4808 19.2491 22.4521 19.2007 22.4205L7.87574 15.957H7.8705L7.5 15.75V28.473C7.50578 29.3218 8.19839 30.0054 9.04724 30H30.7267C30.7395 30 30.7507 29.994 30.7642 29.994C30.9435 29.9825 31.1203 29.9456 31.2892 29.8845C31.3622 29.8536 31.4327 29.817 31.5 29.775C31.5502 29.7465 31.6365 29.6843 31.6365 29.6843C32.0207 29.4 32.2481 28.951 32.25 28.473V15.75C32.2497 15.9934 32.1185 16.2177 31.9065 16.3373Z" fill="url(#paint0_linear_118_1299)"/>
<path opacity="0.5" d="M31.65 15.6997V16.4797L19.965 24.525L7.8675 15.9622C7.8675 15.9581 7.86413 15.9547 7.85999 15.9547L6.75 15.2872V14.7247L7.2075 14.7172L8.17499 15.2722L8.19748 15.2797L8.27998 15.3322C8.27998 15.3322 19.65 21.8197 19.68 21.8347L20.115 22.0897C20.1525 22.0747 20.19 22.0597 20.235 22.0447C20.2575 22.0297 31.5224 15.6922 31.5224 15.6922L31.65 15.6997Z" fill="#0A2767"/>
<path d="M31.9065 16.3373L31.8922 16.3455L20.7172 22.6305C20.6685 22.6605 20.619 22.689 20.5672 22.7145C20.1332 22.9265 19.6257 22.9265 19.1917 22.7145C19.1403 22.689 19.0903 22.661 19.0417 22.6305L7.86675 16.3455L7.85325 16.3373C7.6375 16.2203 7.50224 15.9954 7.5 15.75V28.473C7.50537 29.3217 8.19774 30.0054 9.04643 30C9.04643 30 9.04647 30 9.0465 30H30.7035C31.5522 30.0054 32.2446 29.3218 32.25 28.4731C32.25 28.4731 32.25 28.473 32.25 28.473V15.75C32.2497 15.9934 32.1184 16.2177 31.9065 16.3373Z" fill="#026451"/>
<path opacity="0.1" d="M20.8799 22.5375L20.7126 22.6312C20.6642 22.6621 20.6141 22.6904 20.5626 22.716C20.3784 22.8064 20.178 22.8594 19.9731 22.872L24.2249 27.9L31.6416 29.6872C31.8449 29.5337 32.0065 29.3318 32.1119 29.1L20.8799 22.5375Z" fill="black"/>
<path opacity="0.05" d="M21.6374 22.1115L20.7126 22.6313C20.6642 22.6621 20.6141 22.6904 20.5626 22.716C20.3784 22.8064 20.178 22.8595 19.9731 22.872L21.9651 28.3643L31.6439 29.685C32.0252 29.3987 32.2496 28.9498 32.2499 28.473V28.3087L21.6374 22.1115Z" fill="black"/>
<path d="M9.0675 30H30.7012C31.0341 30.0017 31.3588 29.8965 31.6275 29.7L19.35 22.5083C19.2984 22.4824 19.2483 22.4536 19.2 22.422L7.87499 15.9585H7.86974L7.5 15.75V28.4295C7.49916 29.296 8.20094 29.9992 9.0675 30Z" fill="#28A8EA"/>
<path opacity="0.1" d="M18 7.37474V23.3722C17.9987 23.9331 17.6576 24.4373 17.1375 24.6472C16.9764 24.7165 16.8029 24.7522 16.6275 24.7522H7.5V6.74999H9V6H16.6275C17.3852 6.00287 17.9984 6.61705 18 7.37474Z" fill="black"/>
<path opacity="0.2" d="M17.25 8.12475V24.1222C17.2519 24.3034 17.2135 24.4827 17.1375 24.6472C16.9292 25.1606 16.4315 25.4974 15.8775 25.5H7.5V6.75H15.8775C16.0951 6.74782 16.3096 6.8021 16.5 6.90751C16.9597 7.13913 17.2498 7.60995 17.25 8.12475Z" fill="black"/>
<path opacity="0.2" d="M17.25 8.12475V22.6222C17.2463 23.3796 16.6348 23.9934 15.8775 24H7.5V6.75H15.8775C16.0951 6.74782 16.3096 6.8021 16.5 6.90751C16.9597 7.13913 17.2498 7.60995 17.25 8.12475Z" fill="black"/>
<path opacity="0.2" d="M16.5 8.12474V22.6222C16.4992 23.3808 15.886 23.9963 15.1275 24H7.5V6.75H15.1275C15.8859 6.75041 16.5004 7.36557 16.5 8.124C16.5 8.12425 16.5 8.1245 16.5 8.12474Z" fill="black"/>
<path d="M1.37474 6.75H15.1252C15.8845 6.75 16.5 7.3655 16.5 8.12474V21.8752C16.5 22.6345 15.8845 23.25 15.1252 23.25H1.37474C0.615487 23.25 0 22.6345 0 21.8752V8.12474C0 7.3655 0.615504 6.75 1.37474 6.75Z" fill="url(#paint1_linear_118_1299)"/>
<path d="M4.29684 12.516C4.63566 11.7941 5.18257 11.19 5.86734 10.7813C6.62568 10.3471 7.48912 10.1307 8.36259 10.1558C9.17215 10.1382 9.97099 10.3434 10.6718 10.749C11.3308 11.142 11.8615 11.7178 12.1996 12.4065C12.5678 13.1654 12.7512 14.0006 12.7351 14.844C12.7529 15.7254 12.5641 16.5987 12.1838 17.394C11.8377 18.1074 11.2902 18.7037 10.6088 19.1092C9.88097 19.5273 9.05248 19.7379 8.21335 19.7183C7.38649 19.7382 6.57005 19.5307 5.85309 19.1182C5.18843 18.7248 4.65106 18.1483 4.3051 17.4577C3.93474 16.7098 3.74907 15.884 3.7636 15.0495C3.74817 14.1756 3.93046 13.3096 4.29684 12.516ZM5.97083 16.5885C6.15149 17.0449 6.45784 17.4407 6.85433 17.73C7.25818 18.0123 7.74177 18.1579 8.23432 18.1455C8.75888 18.1663 9.27593 18.0157 9.70733 17.7165C10.0988 17.4281 10.3971 17.0312 10.5653 16.575C10.7534 16.0655 10.8462 15.5258 10.8391 14.9828C10.8449 14.4345 10.7576 13.8893 10.5811 13.3703C10.4251 12.9016 10.1364 12.4884 9.75007 12.1808C9.32949 11.8674 8.81383 11.7085 8.28982 11.7308C7.78659 11.7177 7.29218 11.8645 6.87758 12.15C6.47438 12.4406 6.16221 12.8399 5.97758 13.3013C5.568 14.3589 5.56587 15.5309 5.97157 16.59L5.97083 16.5885Z" fill="white"/>
<path d="M24 4.5H30.75V11.25H24V4.5Z" fill="#50D9FF"/>
</g>
<defs>
<linearGradient id="paint0_linear_118_1299" x1="19.875" y1="15.75" x2="19.875" y2="30" gradientUnits="userSpaceOnUse">
<stop stop-color="#35B8F1"/>
<stop offset="1" stop-color="#28A8EA"/>
</linearGradient>
<linearGradient id="paint1_linear_118_1299" x1="2.86638" y1="5.6758" x2="13.6336" y2="24.3242" gradientUnits="userSpaceOnUse">
<stop stop-color="#1784D9"/>
<stop offset="0.5" stop-color="#107AD5"/>
<stop offset="1" stop-color="#0A63C9"/>
</linearGradient>
<clipPath id="clip0_118_1299">
<rect width="32.25" height="30" fill="white"/>
</clipPath>
</defs>
</svg>
