<svg width="85" height="36" viewBox="0 0 85 36" fill="none" xmlns="http://www.w3.org/2000/svg">
<path fill-rule="evenodd" clip-rule="evenodd" d="M85.0001 18.4552C85.0001 12.3511 82.0723 7.53467 76.4765 7.53467C70.857 7.53467 67.457 12.3511 67.457 18.4075C67.457 25.5845 71.4709 29.2087 77.232 29.2087C80.0418 29.2087 82.1668 28.5649 83.7723 27.6589V22.8901C82.1668 23.7008 80.3251 24.2015 77.9876 24.2015C75.6973 24.2015 73.6668 23.3908 73.407 20.5773H84.9529C84.9529 20.2673 85.0001 19.0274 85.0001 18.4552ZM73.3362 16.19C73.3362 13.4956 74.9654 12.375 76.4529 12.375C77.8931 12.375 79.4279 13.4956 79.4279 16.19H73.3362Z" fill="#625AFA"/>
<path fill-rule="evenodd" clip-rule="evenodd" d="M58.343 7.53467C56.0291 7.53467 54.5416 8.63149 53.7153 9.39449L53.4083 7.91617H48.2139V35.7181L54.1166 34.4544L54.1403 27.7066C54.9903 28.3265 56.2416 29.2087 58.3194 29.2087C62.5458 29.2087 66.3944 25.7752 66.3944 18.2167C66.3708 11.302 62.475 7.53467 58.343 7.53467ZM56.9264 23.9631C55.5333 23.9631 54.7069 23.4624 54.1403 22.8424L54.1166 13.9964C54.7305 13.3049 55.5805 12.828 56.9264 12.828C59.075 12.828 60.5625 15.2601 60.5625 18.3836C60.5625 21.5787 59.0986 23.9631 56.9264 23.9631Z" fill="#625AFA"/>
<path fill-rule="evenodd" clip-rule="evenodd" d="M40.0918 6.12787L46.0182 4.8403V0L40.0918 1.26372V6.12787Z" fill="#625AFA"/>
<path d="M46.0182 7.94H40.0918V28.8034H46.0182V7.94Z" fill="#625AFA"/>
<path fill-rule="evenodd" clip-rule="evenodd" d="M33.7405 9.70439L33.3627 7.93995H28.2627V28.8033H34.1655V14.6639C35.5585 12.8279 37.9196 13.1617 38.6516 13.424V7.93995C37.896 7.65382 35.1335 7.12925 33.7405 9.70439Z" fill="#625AFA"/>
<path fill-rule="evenodd" clip-rule="evenodd" d="M21.9341 2.76587L16.173 4.00575L16.1494 23.1047C16.1494 26.6336 18.7702 29.2325 22.2647 29.2325C24.2008 29.2325 25.6175 28.8749 26.3966 28.4457V23.6054C25.6411 23.9154 21.9105 25.0122 21.9105 21.4833V13.0187H26.3966V7.93999H21.9105L21.9341 2.76587Z" fill="#625AFA"/>
<path fill-rule="evenodd" clip-rule="evenodd" d="M5.97361 13.9964C5.97361 13.0664 6.72917 12.7088 7.98056 12.7088C9.775 12.7088 12.0417 13.2572 13.8361 14.2348V8.63148C11.8764 7.84464 9.94028 7.53467 7.98056 7.53467C3.1875 7.53467 0 10.0621 0 14.2825C0 20.8634 8.97222 19.8143 8.97222 22.6517C8.97222 23.7485 8.02778 24.1061 6.70556 24.1061C4.74583 24.1061 2.24306 23.2955 0.259722 22.1986V27.8735C2.45556 28.8272 4.675 29.2326 6.70556 29.2326C11.6167 29.2326 14.9931 26.7767 14.9931 22.5086C14.9694 15.4031 5.97361 16.6669 5.97361 13.9964Z" fill="#625AFA"/>
</svg>
