<svg width="120" height="29" viewBox="0 0 120 29" fill="none" xmlns="http://www.w3.org/2000/svg">
<path d="M1.76692 12.7657C2.87771 11.1572 4.30709 9.9017 6.03785 8.99583C7.78755 8.08996 9.61302 7.68352 11.5315 7.75757C13.047 7.81613 14.4798 8.24496 15.8437 9.05783C16.5085 9.45394 16.772 10.2737 16.462 10.9729L15.1222 13.9971C14.5883 15.2009 12.8627 15.2216 12.2927 14.035C11.5969 12.59 10.9529 11.5378 10.3656 10.8816C9.38742 9.79148 8.57801 9.44016 7.95632 9.84659C7.31568 10.2341 6.90236 11.0848 6.69571 12.361C6.4701 13.6371 6.50799 15.0407 6.80937 16.5941C7.0918 18.1458 7.65666 19.515 8.52118 20.7343C9.38742 21.9536 10.5723 22.6941 12.0964 22.9714C12.8868 23.1178 13.7875 23.0489 14.7898 22.7682C16.2175 22.3686 17.3782 23.9909 16.4672 25.1431C16.4603 25.1534 16.4517 25.162 16.4448 25.1724C15.6733 26.1523 14.733 26.8722 13.6411 27.3527C12.5303 27.8332 11.4764 28.0743 10.4603 28.0743C8.5229 28.0743 6.77148 27.6299 5.19227 26.762C3.61134 25.875 2.35073 24.7108 1.41044 23.2315C0.470147 21.7521 0 20.1074 0 18.3146C0.0723302 16.2394 0.656137 14.3915 1.76692 12.7657Z" fill="#45D884"/>
<path d="M34.7527 9.12562C36.3526 10.0504 37.6321 11.2887 38.5724 12.8404C39.5317 14.3921 40.0208 16.1125 40.0208 17.9966C40.0208 19.8824 39.5317 21.6184 38.5724 23.1529C37.6321 24.7063 36.3526 25.9445 34.7527 26.8676C33.1339 27.7924 31.3463 28.2729 29.4089 28.2729C27.4525 28.2729 25.6649 27.7924 24.0461 26.8676C22.4462 25.9428 21.1856 24.7046 20.2264 23.1529C19.2672 21.6184 18.7781 19.8807 18.7781 17.9966C18.7781 16.1108 19.2672 14.3921 20.2264 12.8404C21.1856 11.287 22.4462 10.0487 24.0461 9.12562C25.6649 8.21975 27.4525 7.73926 29.4089 7.73926C31.3463 7.73926 33.1339 8.21975 34.7527 9.12562ZM26.3039 9.56995C25.6632 9.66295 25.231 10.1434 24.9675 10.9925C24.704 11.8432 24.6472 12.9334 24.8176 14.2457C24.9485 15.5769 25.3067 16.9995 25.8716 18.5891C26.4365 20.1786 27.1133 21.565 27.8848 22.8033C28.6374 24.0415 29.4278 25.0025 30.1994 25.65C31.0088 26.3337 31.7234 26.6489 32.3813 26.537C33.003 26.444 33.4542 25.9635 33.6988 25.1144C33.9433 24.3016 34.0001 23.2114 33.8486 21.8802C33.6988 20.5489 33.3595 19.1074 32.7946 17.5179C32.2108 15.9283 31.553 14.5419 30.7814 13.3226C30.0289 12.1033 29.2384 11.1423 28.4479 10.4569C27.7522 9.86616 27.1115 9.551 26.5295 9.551C26.4554 9.551 26.3796 9.551 26.3039 9.56995Z" fill="#45D884"/>
<path d="M49.4494 6.57866C49.427 7.34504 49.396 7.97019 49.3564 8.45757C49.3219 8.87434 49.656 9.22739 50.0814 9.22223C50.4999 9.21706 51.0062 9.21017 51.4126 9.205C51.8139 9.19984 52.1411 9.51844 52.1411 9.9111C52.1411 10.302 51.819 10.6189 51.4212 10.6189H49.8696C49.5234 10.6189 49.2255 10.86 49.1618 11.1941C48.9448 12.3342 48.7967 13.6689 48.7157 15.1655C48.6021 16.9394 48.6589 18.5479 48.8655 19.9894C49.0722 21.4308 49.5045 22.5589 50.183 23.3528C50.6342 23.8832 51.2197 24.1984 51.9499 24.2966C52.4889 24.3689 52.7645 24.9682 52.4528 25.4056C51.4212 26.8506 50.2019 27.7237 48.7726 27.9924C47.0142 28.342 45.311 27.8322 43.6629 26.482C43.644 26.4665 43.6268 26.451 43.6096 26.4338C42.6658 25.5503 42.1302 24.4309 42.0355 23.0945C41.9218 21.7632 41.9408 20.3958 42.1113 18.9905C42.1681 18.3981 42.2249 17.8263 42.2422 17.2717C42.3731 15.5892 42.392 14.1666 42.2801 13.0214C42.1905 12.1121 41.9942 11.4111 41.6807 10.9393C41.5481 10.7378 41.3191 10.6189 41.0763 10.6189H40.6664C40.2686 10.6189 39.9465 10.302 39.9465 9.9111V9.79916C39.9465 9.4685 40.1808 9.18606 40.508 9.11029C41.0504 8.98284 41.8754 8.7159 42.9758 8.30946C44.5757 7.69981 45.8931 7.09016 46.9281 6.47878C47.4551 6.16706 47.9528 5.88979 48.4178 5.64524C48.9258 5.37658 49.532 5.77613 49.4717 6.33928C49.4649 6.40128 49.458 6.46328 49.4528 6.527C49.4511 6.54422 49.4494 6.56144 49.4494 6.57866Z" fill="#45D884"/>
<path d="M69.0583 9.62088C70.5411 10.7868 71.4211 12.4367 71.7173 14.5532C71.7259 14.617 71.7311 14.6824 71.7345 14.7461C71.7914 16.3271 71.4332 17.5705 70.6582 18.4747C69.8867 19.4167 68.8896 20.0091 67.6479 20.2675C66.4062 20.5258 65.1267 20.4517 63.8092 20.0453C62.4918 19.6389 61.3259 18.9173 60.3288 17.8461C59.3799 16.8627 58.7427 15.5883 58.4017 14.04C58.3655 13.8799 58.1812 13.8006 58.04 13.8885C57.966 13.935 57.9229 14.0176 57.9281 14.1055C58.04 15.6244 58.4895 17.0556 59.292 18.4006C60.1014 19.787 61.1743 20.9322 62.4918 21.8019C63.8092 22.6889 65.2386 23.1504 66.8195 23.2072C67.3844 23.2262 67.951 23.1745 68.521 23.0471C70.0072 22.7147 71.1524 24.3301 70.2552 25.5408C70.2328 25.5701 70.2104 25.5994 70.1881 25.6286C69.3976 26.6086 68.4762 27.3112 67.3844 27.7177C66.3115 28.143 65.2024 28.3273 64.0916 28.3084C62.4728 28.2894 60.8919 27.976 59.3506 27.3474C57.7886 26.7188 56.4901 25.7027 55.4361 24.2612C54.3632 22.8387 53.7811 20.915 53.6296 18.4936C53.4987 16.83 53.7433 15.3144 54.3822 13.9281C55.04 12.5228 55.9442 11.3224 57.1101 10.3425C58.2949 9.34533 59.5934 8.62374 61.0434 8.17941C61.9458 7.92108 62.85 7.79192 63.7524 7.80914C65.7656 7.82808 67.5342 8.43946 69.0583 9.62088Z" fill="#45D884"/>
<path d="M88.3271 8.56947C88.3374 8.57636 88.346 8.58325 88.3563 8.58842C89.8753 9.60279 90.292 11.6264 89.3672 13.1832L88.7507 14.2217C88.0033 15.4789 86.2071 15.615 85.2737 14.4835L85.2427 14.4456C84.1887 13.1694 83.1727 12.6149 82.1945 12.8009C81.2163 12.9679 80.6514 13.7808 80.4827 15.2585C80.3139 16.7189 80.3139 18.3636 80.5016 20.1753C80.6704 21.9871 80.896 23.6507 81.1423 25.1473L81.1491 25.1921C81.392 26.6817 80.2209 28.0302 78.6865 28.0302H75.9052C74.3656 28.0302 73.1635 26.7179 73.334 25.2144C73.396 24.6651 73.4598 24.0571 73.5218 23.3906C73.7474 21.1914 73.8231 18.8441 73.7284 16.3297C73.6957 15.2516 73.5975 14.232 73.4356 13.2711C73.0947 11.2492 74.3897 9.31002 76.427 8.86914L79.5768 8.18715C80.1882 8.05454 80.6342 8.7417 80.2553 9.2308C80.2502 9.23769 80.245 9.24458 80.2399 9.25146C79.6939 9.95412 79.2238 10.9151 78.8105 12.0982C78.4402 13.2039 78.3179 14.5369 78.4419 16.0817C78.4574 16.2642 78.6142 16.4054 78.8001 16.4054C78.9947 16.4054 79.1497 16.2556 79.1583 16.0644C79.2031 15.0363 79.3702 13.953 79.675 12.8388C79.9953 11.5816 80.7289 10.4363 81.857 9.40129C82.9677 8.3852 84.0768 7.83066 85.2065 7.73766C86.3139 7.64638 87.3489 7.92365 88.3271 8.56947Z" fill="#45D884"/>
<path d="M95.0693 8.00409C93.1113 8.42258 91.8403 10.267 92.1348 12.2148C92.1968 12.6264 92.2519 13.0656 92.2984 13.5323C92.5343 15.7023 92.5946 18.1065 92.5154 20.7225C92.481 21.8936 92.4138 23.0354 92.3174 24.1462C92.1262 26.3213 93.8948 28.183 96.1164 28.183H96.4643C98.722 28.183 100.472 26.2541 100.225 24.048C99.9826 21.8746 99.8001 19.808 99.6778 17.8516C99.5624 16.0019 99.5555 13.9939 99.6554 11.8187C99.7691 9.37495 97.5027 7.48226 95.0693 8.00409Z" fill="#45D884"/>
<path d="M106.072 13.8907C106.213 13.8029 106.398 13.8821 106.434 14.0423C106.775 15.5905 107.412 16.8649 108.361 17.8483C109.358 18.9195 110.524 19.6411 111.841 20.0476C113.159 20.454 114.438 20.528 115.68 20.2697C116.922 20.0114 117.919 19.419 118.69 18.4769C119.465 17.571 119.823 16.3276 119.767 14.7484C119.765 14.6847 119.758 14.6192 119.749 14.5555C119.453 12.4389 118.573 10.7891 117.09 9.62314C115.566 8.43999 113.798 7.83034 111.784 7.81139C110.882 7.79245 109.978 7.92161 109.075 8.18166C107.627 8.62599 106.329 9.34587 105.142 10.3447C103.976 11.3247 103.072 12.525 102.414 13.9303C101.775 15.3167 101.529 16.8322 101.662 18.4959C101.811 20.9173 102.395 22.8392 103.468 24.2635C104.522 25.7049 105.821 26.721 107.383 27.3496C108.926 27.9782 110.507 28.2917 112.124 28.3106C113.234 28.3296 114.344 28.1453 115.416 27.7199C116.508 27.3135 117.43 26.6108 118.22 25.6309C118.242 25.6016 118.265 25.5723 118.287 25.5431C119.186 24.3324 118.041 22.7169 116.553 23.0493C115.983 23.1768 115.416 23.2302 114.852 23.2095C113.271 23.1544 111.841 22.6911 110.524 21.8042C109.206 20.9362 108.133 19.7892 107.324 18.4029C106.522 17.0578 106.072 15.6267 105.96 14.1077C105.955 14.0199 105.998 13.9372 106.072 13.8907ZM107.86 11.7294C107.916 10.7873 108.235 10.176 108.838 9.86252C109.196 9.73336 109.571 9.73336 109.93 9.84358C111.059 10.25 112.038 11.2661 112.847 12.9297C113.374 14.075 113.6 15.11 113.543 16.0538C113.486 16.9958 113.167 17.6072 112.565 17.9017C111.945 18.16 111.247 17.9947 110.495 17.4023C109.742 16.8288 109.101 15.9797 108.557 14.8517C108.028 13.7064 107.803 12.6525 107.86 11.7294Z" fill="#45D884"/>
<path d="M95.6135 6.39277C97.4111 6.39277 98.8683 4.9617 98.8683 3.19638C98.8683 1.43107 97.4111 0 95.6135 0C93.8159 0 92.3586 1.43107 92.3586 3.19638C92.3586 4.9617 93.8159 6.39277 95.6135 6.39277Z" fill="#45D884"/>
</svg>
