<?xml version="1.0" encoding="utf-8"?>
<!-- Generator: Adobe Illustrator 24.1.3, SVG Export Plug-In . SVG Version: 6.00 Build 0)  -->
<svg version="1.1" id="Layer_1" xmlns="http://www.w3.org/2000/svg" xmlns:xlink="http://www.w3.org/1999/xlink" x="0px" y="0px"
	 viewBox="0 0 1600 1600" style="enable-background:new 0 0 1600 1600;" xml:space="preserve">
<style type="text/css">
	.st0{fill:#45D884;}
</style>
<path class="st0" d="M1279.75,180.63c111.38,85.58,177.5,206.73,199.7,362.17c0.66,4.64,1.1,9.45,1.27,14.13
	c4.28,116.07-22.67,207.36-80.85,273.88c-57.94,69.23-132.85,112.66-226.1,131.67c-93.27,19-189.38,13.57-288.29-16.29
	c-98.93-29.86-186.55-82.8-261.44-161.52C552.8,712.44,504.95,618.91,479.36,505.2c-2.66-11.8-16.54-17.62-27.14-11.14h0
	c-5.58,3.41-8.84,9.54-8.37,15.88c8.41,111.54,42.13,216.69,102.44,315.43c60.76,101.81,141.33,185.96,240.25,249.76
	c98.93,65.15,206.33,99.09,325.03,103.16c42.4,1.45,84.98-2.46,127.73-11.8c111.67-24.4,197.67,94.28,130.22,183.18
	c-1.64,2.16-3.3,4.31-4.98,6.43c-59.36,71.95-128.61,123.53-210.57,153.39c-80.55,31.22-163.93,44.79-247.31,43.43
	c-121.53-1.35-240.25-24.42-356.12-70.57c-117.29-46.16-214.82-120.81-293.95-226.69c-80.55-104.51-124.36-245.68-135.68-423.5
	c-9.89-122.15,8.49-233.46,56.53-335.27c49.47-103.16,117.29-191.38,204.91-263.33c89.04-73.28,186.55-126.23,295.37-158.81
	c67.83-19,135.66-28.51,203.49-27.14C1032.43,48.97,1165.28,93.76,1279.75,180.63z"/>
</svg>
