<svg width="2302" height="544" viewBox="0 0 2302 544" fill="none" xmlns="http://www.w3.org/2000/svg">
<path d="M33.9508 245.299C55.2942 214.392 82.7593 190.269 116.015 172.864C149.635 155.458 184.711 147.649 221.574 149.072C250.694 150.197 278.225 158.436 304.433 174.055C317.205 181.666 322.268 197.417 316.312 210.852L290.568 268.958C280.31 292.089 247.153 292.486 236.2 269.686C222.831 241.924 210.456 221.705 199.172 209.098C180.376 188.151 164.824 181.401 152.878 189.21C140.568 196.656 132.627 213.002 128.656 237.522C124.321 262.043 125.049 289.011 130.84 318.859C136.267 348.673 147.12 374.98 163.732 398.408C180.376 421.837 203.143 436.065 232.428 441.393C247.616 444.206 264.922 442.882 284.181 437.488C311.613 429.811 333.916 460.983 316.411 483.12C316.279 483.319 316.114 483.484 315.981 483.683C301.157 502.511 283.089 516.343 262.11 525.575C240.766 534.807 220.515 539.44 200.992 539.44C163.765 539.44 130.112 530.903 99.7678 514.225C69.3908 497.184 45.1685 474.814 27.1011 446.39C9.03371 417.965 0 386.364 0 351.916C1.3898 312.042 12.6075 276.536 33.9508 245.299Z" fill="black"/>
<path d="M667.766 175.312C698.507 193.082 723.094 216.874 741.161 246.689C759.592 276.503 768.99 309.561 768.99 345.762C768.99 381.996 759.592 415.351 741.161 444.835C723.094 474.682 698.507 498.474 667.766 516.211C636.661 533.98 602.313 543.213 565.087 543.213C527.496 543.213 493.148 533.98 462.043 516.211C431.302 498.441 407.079 474.649 388.648 444.835C370.217 415.351 360.819 381.963 360.819 345.762C360.819 309.527 370.217 276.503 388.648 246.689C407.079 216.841 431.302 193.049 462.043 175.312C493.148 157.907 527.496 148.675 565.087 148.675C602.313 148.675 636.661 157.907 667.766 175.312ZM505.424 183.85C493.115 185.637 484.809 194.869 479.746 211.183C474.683 227.529 473.591 248.476 476.867 273.69C479.382 299.269 486.265 326.602 497.119 357.145C507.972 387.687 520.977 414.325 535.801 438.117C550.262 461.909 565.451 480.374 580.275 492.816C595.828 505.953 609.56 512.008 622.201 509.857C634.146 508.07 642.816 498.838 647.515 482.525C652.214 466.906 653.306 445.96 650.394 420.381C647.515 394.802 640.996 367.105 630.142 336.562C618.925 306.02 606.284 279.382 591.46 255.954C576.999 232.526 561.811 214.061 546.622 200.891C533.253 189.541 520.944 183.486 509.759 183.486C508.336 183.486 506.88 183.486 505.424 183.85Z" fill="black"/>
<path d="M950.16 126.44C949.73 141.165 949.135 153.177 948.374 162.542C947.712 170.55 954.131 177.333 962.305 177.234C970.346 177.135 980.074 177.002 987.884 176.903C995.594 176.804 1001.88 182.926 1001.88 190.47C1001.88 197.982 995.693 204.07 988.049 204.07H958.235C951.583 204.07 945.859 208.703 944.634 215.123C940.465 237.029 937.619 262.674 936.064 291.429C933.88 325.513 934.972 356.419 938.943 384.116C942.914 411.813 951.219 433.487 964.257 448.742C972.927 458.933 984.177 464.989 998.208 466.875C1008.57 468.265 1013.86 479.78 1007.87 488.185C988.049 515.948 964.621 532.725 937.156 537.887C903.371 544.605 870.644 534.81 838.976 508.867C838.612 508.569 838.281 508.271 837.951 507.94C819.817 490.965 809.526 469.456 807.706 443.778C805.522 418.199 805.886 391.925 809.162 364.923C810.254 353.54 811.346 342.554 811.677 331.899C814.192 299.57 814.556 272.237 812.405 250.232C810.684 232.76 806.912 219.292 800.889 210.225C798.341 206.354 793.94 204.07 789.274 204.07H781.399C773.755 204.07 767.567 197.982 767.567 190.47V188.319C767.567 181.966 772.067 176.539 778.355 175.083C788.778 172.634 804.628 167.505 825.773 159.696C856.514 147.982 881.829 136.268 901.716 124.521C911.842 118.532 921.405 113.204 930.339 108.505C940.101 103.343 951.749 111.02 950.591 121.841C950.458 123.032 950.326 124.223 950.227 125.447C950.194 125.778 950.16 126.109 950.16 126.44Z" fill="black"/>
<path d="M1326.93 184.875C1355.42 207.278 1372.33 238.978 1378.02 279.647C1378.19 280.871 1378.29 282.128 1378.35 283.353C1379.44 313.73 1372.56 337.621 1357.67 354.994C1342.85 373.094 1323.69 384.477 1299.83 389.441C1275.97 394.405 1251.38 392.982 1226.07 385.172C1200.76 377.363 1178.35 363.498 1159.19 342.916C1140.96 324.021 1128.72 299.534 1122.17 269.786C1121.47 266.708 1117.93 265.186 1115.22 266.874C1113.79 267.767 1112.97 269.356 1113.07 271.043C1115.22 300.229 1123.85 327.727 1139.27 353.571C1154.83 380.209 1175.44 402.214 1200.76 418.925C1226.07 435.966 1253.53 444.834 1283.91 445.926C1294.77 446.29 1305.65 445.298 1316.61 442.849C1345.16 436.463 1367.17 467.501 1349.93 490.764C1349.5 491.327 1349.07 491.889 1348.64 492.452C1333.45 511.28 1315.74 524.781 1294.77 532.59C1274.15 540.764 1252.84 544.305 1231.5 543.941C1200.39 543.577 1170.01 537.554 1140.4 525.476C1110.39 513.398 1085.43 493.875 1065.18 466.178C1044.57 438.845 1033.38 401.883 1030.47 355.358C1027.96 323.392 1032.66 294.273 1044.93 267.635C1057.57 240.633 1074.95 217.569 1097.35 198.74C1120.11 179.581 1145.06 165.716 1172.93 157.179C1190.27 152.215 1207.64 149.733 1224.98 150.064C1263.66 150.428 1297.64 162.175 1326.93 184.875Z" fill="black"/>
<path d="M1697.18 164.66C1697.38 164.792 1697.54 164.925 1697.74 165.024C1726.93 184.514 1734.94 223.396 1717.17 253.309L1705.32 273.263C1690.96 297.419 1656.44 300.033 1638.51 278.293L1637.91 277.565C1617.66 253.045 1598.14 242.389 1579.34 245.963C1560.55 249.173 1549.69 264.792 1546.45 293.183C1543.21 321.244 1543.21 352.846 1546.82 387.657C1550.06 422.468 1554.39 454.433 1559.13 483.189L1559.26 484.049C1563.92 512.673 1541.42 538.583 1511.94 538.583H1458.5C1428.91 538.583 1405.82 513.368 1409.09 484.48C1410.28 473.924 1411.51 462.243 1412.7 449.437C1417.03 407.18 1418.49 362.078 1416.67 313.766C1416.04 293.051 1414.16 273.461 1411.05 254.997C1404.49 216.149 1429.38 178.889 1468.52 170.418L1529.05 157.314C1540.79 154.766 1549.36 167.969 1542.08 177.367C1541.98 177.499 1541.89 177.631 1541.79 177.764C1531.3 191.265 1522.26 209.729 1514.32 232.462C1507.21 253.706 1504.86 279.319 1507.24 309.001C1507.54 312.508 1510.55 315.222 1514.12 315.222C1517.86 315.222 1520.84 312.343 1521 308.67C1521.87 288.915 1525.08 268.101 1530.93 246.691C1537.09 222.535 1551.18 200.53 1572.86 180.643C1594.2 161.119 1615.51 150.464 1637.22 148.677C1658.5 146.923 1678.38 152.251 1697.18 164.66Z" fill="black"/>
<path d="M1826.73 153.77C1789.1 161.811 1764.68 197.251 1770.34 234.676C1771.53 242.585 1772.59 251.023 1773.48 259.991C1778.02 301.685 1779.18 347.879 1777.65 398.144C1776.99 420.645 1775.7 442.584 1773.85 463.927C1770.17 505.721 1804.16 541.491 1846.85 541.491H1853.53C1896.91 541.491 1930.53 504.43 1925.8 462.041C1921.13 420.281 1917.63 380.572 1915.28 342.982C1913.06 307.442 1912.93 268.859 1914.85 227.066C1917.03 180.11 1873.48 143.744 1826.73 153.77Z" fill="black"/>
<path d="M2038.14 266.909C2040.86 265.221 2044.4 266.743 2045.09 269.821C2051.64 299.569 2063.89 324.056 2082.12 342.951C2101.28 363.533 2123.68 377.398 2149 385.207C2174.31 393.017 2198.9 394.439 2222.75 389.476C2246.61 384.512 2265.77 373.129 2280.6 355.029C2295.49 337.623 2302.37 313.732 2301.28 283.388C2301.25 282.163 2301.11 280.906 2300.95 279.682C2295.26 239.013 2278.35 207.313 2249.86 184.91C2220.57 162.177 2186.59 150.463 2147.9 150.099C2130.56 149.735 2113.19 152.217 2095.85 157.214C2068.02 165.751 2043.07 179.583 2020.27 198.775C1997.87 217.604 1980.5 240.668 1967.86 267.67C1955.58 294.308 1950.85 323.427 1953.4 355.393C1956.28 401.918 1967.49 438.847 1988.11 466.213C2008.36 493.909 2033.31 513.433 2063.32 525.511C2092.97 537.589 2123.35 543.611 2154.42 543.975C2175.77 544.339 2197.08 540.799 2217.69 532.625C2238.67 524.816 2256.37 511.315 2271.56 492.487C2271.99 491.924 2272.42 491.362 2272.85 490.799C2290.13 467.536 2268.12 436.497 2239.53 442.884C2228.58 445.333 2217.69 446.358 2206.84 445.961C2176.46 444.902 2149 436.001 2123.68 418.959C2098.37 402.282 2077.75 380.244 2062.2 353.606C2046.78 327.762 2038.14 300.264 2035.99 271.078C2035.89 269.39 2036.72 267.802 2038.14 266.909ZM2072.49 225.38C2073.58 207.28 2079.7 195.532 2091.29 189.51C2098.17 187.028 2105.38 187.028 2112.27 189.146C2133.97 196.955 2152.77 216.479 2168.32 248.444C2178.45 270.449 2182.78 290.337 2181.69 308.47C2180.6 326.571 2174.48 338.318 2162.89 343.976C2150.98 348.94 2137.58 345.763 2123.12 334.38C2108.66 323.361 2096.35 307.047 2085.89 285.373C2075.73 263.368 2071.4 243.117 2072.49 225.38Z" fill="black"/>
<path d="M1837.18 122.832C1871.72 122.832 1899.72 95.3351 1899.72 61.416C1899.72 27.4969 1871.72 0 1837.18 0C1802.64 0 1774.64 27.4969 1774.64 61.416C1774.64 95.3351 1802.64 122.832 1837.18 122.832Z" fill="black"/>
</svg>
